<svg width="24.000000" height="24.000000" viewBox="0 0 24 24" fill="none" xmlns="http://www.w3.org/2000/svg" xmlns:xlink="http://www.w3.org/1999/xlink">
	<desc>
			Created with Pixso.
	</desc>
	<defs>
		<clipPath id="clip2_2050">
			<rect id="icon-mallbag" rx="-0.500000" width="23.000000" height="23.000000" transform="translate(0.500000 0.500000)" fill="white" fill-opacity="0"/>
		</clipPath>
	</defs>
	<rect id="icon-mallbag" rx="-0.500000" width="23.000000" height="23.000000" transform="translate(0.500000 0.500000)" fill="#FFFFFF" fill-opacity="0"/>
	<g clip-path="url(#clip2_2050)">
		<path id="Vector" d="M3 20.5C3 20.76 3.1 21.01 3.29 21.2C3.48 21.39 3.73 21.5 4 21.5L20 21.5C20.26 21.5 20.51 21.39 20.7 21.2C20.89 21.01 21 20.76 21 20.5L21 6.3L3 6.3L3 20.5Z" stroke="#FAFAFA" stroke-opacity="1.000000" stroke-width="1.500000" stroke-linejoin="round"/>
		<path id="Vector" d="M21 6.3L18.16 2.5L5.83 2.5L3 6.3M15.77 9.6C15.77 11.69 14.08 13.4 12 13.4C9.91 13.4 8.22 11.69 8.22 9.6" stroke="#FAFAFA" stroke-opacity="1.000000" stroke-width="1.500000" stroke-linejoin="round"/>
	</g>
</svg>
