<svg width="32.000000" height="32.000000" viewBox="0 0 32 32" fill="none" xmlns="http://www.w3.org/2000/svg" xmlns:xlink="http://www.w3.org/1999/xlink">
	<desc>
			Created with Pixso.
	</desc>
	<defs>
		<filter id="filter_16_3992_dd" x="0.000000" y="0.000000" width="32.000000" height="32.000000" filterUnits="userSpaceOnUse" color-interpolation-filters="sRGB">
			<feFlood flood-opacity="0" result="BackgroundImageFix"/>
			<feColorMatrix in="SourceAlpha" type="matrix" values="0 0 0 0 0 0 0 0 0 0 0 0 0 0 0 0 0 0 127 0" result="hardAlpha"/>
			<feOffset dx="0" dy="4"/>
			<feGaussianBlur stdDeviation="1.33333"/>
			<feComposite in2="hardAlpha" operator="out" k2="-1" k3="1"/>
			<feColorMatrix type="matrix" values="0 0 0 0 0 0 0 0 0 0 0 0 0 0 0 0 0 0 0.25 0"/>
			<feBlend mode="normal" in2="BackgroundImageFix" result="effect_dropShadow_1"/>
			<feBlend mode="normal" in="SourceGraphic" in2="effect_dropShadow_1" result="shape"/>
		</filter>
		<clipPath id="clip16_3992">
			<rect id="Icon-Twitter" rx="-0.500000" width="23.000000" height="23.000000" transform="translate(4.500000 0.500000)" fill="white" fill-opacity="0"/>
		</clipPath>
	</defs>
	<g filter="url(#filter_16_3992_dd)">
		<rect id="Icon-Twitter" rx="-0.500000" width="23.000000" height="23.000000" transform="translate(4.500000 0.500000)" fill="#FFFFFF" fill-opacity="0"/>
		<g clip-path="url(#clip16_3992)">
			<path id="Vector" d="M19.9 6C19.14 6 18.41 6.29 17.87 6.83C17.33 7.36 17.01 8.08 17 8.84L16.97 10.42C16.97 10.5 16.95 10.59 16.91 10.66C16.88 10.74 16.83 10.81 16.76 10.86C16.7 10.92 16.62 10.96 16.54 10.98C16.46 11.01 16.38 11.01 16.29 11L14.73 10.79C12.68 10.51 10.71 9.56 8.82 7.99C8.22 11.3 9.39 13.59 12.2 15.36L13.95 16.46C14.03 16.51 14.1 16.58 14.15 16.67C14.2 16.75 14.23 16.85 14.23 16.95C14.23 17.05 14.21 17.14 14.17 17.23C14.13 17.32 14.06 17.4 13.99 17.45L12.39 18.62C13.34 18.68 14.24 18.63 14.99 18.49C19.7 17.54 22.84 13.99 22.84 8.14C22.84 7.66 21.83 6 19.9 6ZM15 8.81C15.02 7.84 15.32 6.91 15.87 6.11C16.41 5.32 17.18 4.7 18.08 4.35C18.97 3.99 19.95 3.9 20.9 4.1C21.84 4.29 22.71 4.77 23.39 5.45C24.1 5.45 24.7 5.63 26.05 4.81C25.72 6.45 25.55 7.16 24.84 8.14C24.84 15.78 20.14 19.5 15.38 20.45C12.11 21.1 7.36 20.03 6 18.61C6.69 18.55 9.51 18.25 11.14 17.06C9.76 16.15 4.27 12.92 7.88 4.23C9.57 6.21 11.29 7.56 13.03 8.27C14.19 8.74 14.47 8.73 15 8.81L15 8.81Z" fill="#FFFFFF" fill-opacity="1.000000" fill-rule="nonzero"/>
			<path id="Vector" d="M23.39 5.45C22.71 4.77 21.84 4.29 20.9 4.1C19.95 3.9 18.97 3.99 18.08 4.35C17.18 4.7 16.41 5.32 15.87 6.11C15.36 6.85 15.06 7.71 15.01 8.61C15 8.67 15 8.74 15 8.81L15 8.81C14.93 8.8 14.86 8.79 14.8 8.78C14.38 8.73 14.03 8.68 13.03 8.27C11.34 7.58 9.67 6.29 8.02 4.4C7.98 4.35 7.93 4.29 7.88 4.23C7.85 4.3 7.82 4.37 7.79 4.44C4.49 12.63 9.36 15.89 10.96 16.94C10.97 16.95 10.99 16.96 11 16.97C11.05 17 11.1 17.03 11.14 17.06C11.08 17.1 11.02 17.14 10.96 17.18C9.48 18.16 7.19 18.49 6.26 18.58C6.15 18.59 6.06 18.6 6 18.61C6.05 18.67 6.12 18.73 6.19 18.79C7.77 20.12 12.25 21.07 15.38 20.45C20.14 19.5 24.84 15.78 24.84 8.14C25.51 7.21 25.7 6.53 26 5.07C26.02 4.99 26.04 4.9 26.05 4.81C25.97 4.85 25.9 4.9 25.82 4.94C24.83 5.5 24.26 5.48 23.71 5.46C23.6 5.45 23.5 5.45 23.39 5.45ZM25.77 5.2Q25.2 5.49 24.72 5.6Q24.45 5.65 24.17 5.66Q24.01 5.67 23.71 5.66Q23.49 5.65 23.39 5.65L23.3 5.65L23.24 5.59Q23 5.35 22.72 5.14Q22.45 4.93 22.15 4.77Q21.84 4.6 21.52 4.48Q21.2 4.36 20.86 4.29Q20.52 4.22 20.18 4.2Q19.83 4.18 19.49 4.21Q19.14 4.24 18.81 4.32Q18.48 4.4 18.15 4.53Q17.83 4.66 17.53 4.83Q17.24 5.01 16.97 5.22Q16.7 5.44 16.46 5.69Q16.23 5.94 16.03 6.22Q15.83 6.51 15.68 6.82Q15.53 7.13 15.42 7.46Q15.32 7.79 15.26 8.12Q15.21 8.42 15.2 8.73L15.56 9.09L14.97 9.01Q14.91 9 14.79 8.98Q14.37 8.93 14.09 8.86Q13.65 8.74 12.95 8.45Q10.41 7.41 7.94 4.61Q6.86 7.33 6.87 9.63Q6.88 11.38 7.52 12.86Q7.61 13.07 7.72 13.28Q8.37 14.55 9.5 15.58Q9.91 15.96 10.39 16.31Q10.67 16.51 11.11 16.8Q11.21 16.86 11.25 16.89L11.49 17.05L11.26 17.22Q10.18 18.01 8.26 18.45Q7.6 18.61 6.89 18.71Q6.68 18.74 6.48 18.76Q6.93 19.09 7.65 19.4Q8.68 19.83 10.01 20.11Q11.37 20.39 12.73 20.43Q14.18 20.48 15.34 20.25Q17.01 19.92 18.47 19.18Q18.62 19.1 18.77 19.02Q20.06 18.32 21.09 17.34Q21.43 17.02 21.75 16.67Q22 16.38 22.23 16.08Q23.25 14.75 23.84 13.08Q24.64 10.86 24.64 8.14L24.64 8.07L24.68 8.02Q24.94 7.67 25.11 7.34Q25.27 7.02 25.4 6.66Q25.51 6.32 25.63 5.83Q25.68 5.6 25.77 5.2ZM18.19 6.31Q17.95 6.47 17.73 6.68Q17.51 6.9 17.34 7.14Q17.17 7.39 17.05 7.67Q16.93 7.95 16.87 8.24Q16.81 8.54 16.8 8.84L16.77 10.41Q16.77 10.46 16.76 10.49Q16.75 10.54 16.73 10.58Q16.72 10.62 16.69 10.65Q16.66 10.68 16.63 10.71Q16.6 10.74 16.56 10.76Q16.53 10.78 16.49 10.79Q16.44 10.8 16.4 10.81Q16.36 10.81 16.32 10.8L14.76 10.59Q11.77 10.18 8.95 7.84L8.69 7.62L8.62 7.95Q8.17 10.47 9.05 12.34Q9.91 14.15 12.1 15.53L13.84 16.63Q13.89 16.66 13.92 16.69Q13.95 16.73 13.98 16.77Q14 16.81 14.02 16.86Q14.03 16.9 14.03 16.95Q14.03 17 14.02 17.05Q14.01 17.1 13.99 17.14Q13.97 17.19 13.94 17.23Q13.91 17.26 13.87 17.29L11.83 18.78L12.38 18.82Q13.88 18.91 15.02 18.68Q16.84 18.32 18.3 17.47Q19.26 16.91 20.03 16.17Q20.46 15.75 20.84 15.28Q21.91 13.92 22.47 12.15Q23.04 10.33 23.04 8.14Q23.04 7.89 22.83 7.5Q22.6 7.1 22.23 6.74Q21.9 6.43 21.52 6.21Q21.39 6.14 21.25 6.08Q21.03 5.98 20.79 5.92Q20.36 5.8 19.9 5.8Q19.6 5.8 19.3 5.85Q19.01 5.91 18.73 6.03Q18.44 6.14 18.19 6.31ZM19.9 6C19.14 6 18.41 6.29 17.87 6.83C17.33 7.36 17.01 8.08 17 8.84L16.97 10.42C16.97 10.5 16.95 10.59 16.91 10.66C16.88 10.74 16.83 10.81 16.76 10.86C16.7 10.92 16.62 10.96 16.54 10.98C16.46 11.01 16.38 11.01 16.29 11L14.73 10.79C12.74 10.52 10.83 9.62 9 8.14C8.94 8.09 8.88 8.04 8.82 7.99C8.81 8.07 8.79 8.14 8.78 8.22C8.28 11.41 9.46 13.63 12.2 15.36L13.95 16.46C14.03 16.51 14.1 16.58 14.15 16.67C14.2 16.75 14.23 16.85 14.23 16.95C14.23 17.05 14.21 17.14 14.17 17.23C14.13 17.32 14.06 17.4 13.99 17.45L12.65 18.43L12.39 18.62C12.5 18.62 12.61 18.63 12.71 18.63C13.54 18.66 14.32 18.62 14.99 18.49C19.7 17.54 22.84 13.99 22.84 8.14C22.84 7.66 21.83 6 19.9 6Z" fill="#000000" fill-opacity="1.000000" fill-rule="evenodd"/>
		</g>
	</g>
</svg>
